<mxfile host="Electron" modified="2024-03-09T07:36:39.452Z" agent="Mozilla/5.0 (Windows NT 10.0; Win64; x64) AppleWebKit/537.36 (KHTML, like Gecko) draw.io/23.1.5 Chrome/120.0.6099.109 Electron/28.1.0 Safari/537.36" etag="jKkgFtAAKeH0SdcgsNOS" version="23.1.5" type="device">
  <diagram id="piDafpqhtRUU5qUU-vj8" name="Page-1">
    <mxGraphModel dx="2261" dy="837" grid="1" gridSize="10" guides="1" tooltips="1" connect="1" arrows="1" fold="1" page="1" pageScale="1" pageWidth="827" pageHeight="1169" math="0" shadow="0">
      <root>
        <mxCell id="0" />
        <mxCell id="1" parent="0" />
        <mxCell id="A2ItbT05KYAw-BXwapha-27" value="" style="group" parent="1" vertex="1" connectable="0">
          <mxGeometry x="-296.5" y="10" width="710" height="560" as="geometry" />
        </mxCell>
        <mxCell id="9z-gnFhAnnf-oLJfjQJb-1" value="" style="rounded=1;whiteSpace=wrap;html=1;arcSize=6;imageHeight=24;" parent="A2ItbT05KYAw-BXwapha-27" vertex="1">
          <mxGeometry y="10" width="706" height="550" as="geometry" />
        </mxCell>
        <mxCell id="A2ItbT05KYAw-BXwapha-5" value="" style="group" parent="A2ItbT05KYAw-BXwapha-27" vertex="1" connectable="0">
          <mxGeometry x="30" y="60" width="300" height="30" as="geometry" />
        </mxCell>
        <mxCell id="9z-gnFhAnnf-oLJfjQJb-8" value="Position:" style="text;html=1;strokeColor=none;fillColor=none;align=left;verticalAlign=middle;whiteSpace=wrap;rounded=0;fontSize=15;" parent="A2ItbT05KYAw-BXwapha-5" vertex="1">
          <mxGeometry width="60" height="30" as="geometry" />
        </mxCell>
        <mxCell id="9z-gnFhAnnf-oLJfjQJb-9" value="&lt;span style=&quot;font-size: 15px;&quot;&gt;Long&lt;/span&gt;" style="strokeWidth=1;shadow=0;dashed=0;align=center;html=1;shape=mxgraph.mockup.forms.comboBox;strokeColor=#999999;fillColor=#999999;align=left;fillColor2=#999999;mainText=;fontColor=#666666;fontSize=17;spacingLeft=3;fillStyle=auto;noLabel=0;strokeOpacity=100;fillOpacity=100;allowArrows=1;" parent="A2ItbT05KYAw-BXwapha-5" vertex="1">
          <mxGeometry x="170" y="2.5" width="130" height="25" as="geometry" />
        </mxCell>
        <mxCell id="A2ItbT05KYAw-BXwapha-6" value="" style="group" parent="A2ItbT05KYAw-BXwapha-27" vertex="1" connectable="0">
          <mxGeometry x="30" y="100" width="300" height="30" as="geometry" />
        </mxCell>
        <mxCell id="9z-gnFhAnnf-oLJfjQJb-10" value="Estimation:" style="text;html=1;strokeColor=none;fillColor=none;align=left;verticalAlign=middle;whiteSpace=wrap;rounded=0;fontSize=15;" parent="A2ItbT05KYAw-BXwapha-6" vertex="1">
          <mxGeometry width="60" height="30" as="geometry" />
        </mxCell>
        <mxCell id="9z-gnFhAnnf-oLJfjQJb-11" value="&lt;span style=&quot;font-size: 15px;&quot;&gt;Мин. цель&lt;/span&gt;" style="strokeWidth=1;shadow=0;dashed=0;align=center;html=1;shape=mxgraph.mockup.forms.comboBox;strokeColor=#999999;fillColor=#999999;align=left;fillColor2=#999999;mainText=;fontColor=#666666;fontSize=17;spacingLeft=3;fillStyle=auto;noLabel=0;strokeOpacity=100;fillOpacity=100;allowArrows=1;" parent="A2ItbT05KYAw-BXwapha-6" vertex="1">
          <mxGeometry x="170" y="2.5" width="130" height="25" as="geometry" />
        </mxCell>
        <mxCell id="A2ItbT05KYAw-BXwapha-7" value="" style="group" parent="A2ItbT05KYAw-BXwapha-27" vertex="1" connectable="0">
          <mxGeometry x="370" y="60" width="300" height="30" as="geometry" />
        </mxCell>
        <mxCell id="9z-gnFhAnnf-oLJfjQJb-12" value="Slippage:" style="text;html=1;strokeColor=none;fillColor=none;align=left;verticalAlign=middle;whiteSpace=wrap;rounded=0;fontSize=15;" parent="A2ItbT05KYAw-BXwapha-7" vertex="1">
          <mxGeometry width="130" height="30" as="geometry" />
        </mxCell>
        <mxCell id="9z-gnFhAnnf-oLJfjQJb-13" value="&lt;font style=&quot;font-size: 15px;&quot;&gt;0.02&lt;/font&gt;" style="strokeWidth=1;shadow=0;dashed=0;align=center;html=1;shape=mxgraph.mockup.forms.pwField;strokeColor=#999999;mainText=;align=left;fontColor=#666666;fontSize=17;spacingLeft=3;" parent="A2ItbT05KYAw-BXwapha-7" vertex="1">
          <mxGeometry x="170" y="2.5" width="130" height="25" as="geometry" />
        </mxCell>
        <mxCell id="A2ItbT05KYAw-BXwapha-8" value="" style="group" parent="A2ItbT05KYAw-BXwapha-27" vertex="1" connectable="0">
          <mxGeometry x="370" y="100" width="300" height="30" as="geometry" />
        </mxCell>
        <mxCell id="A2ItbT05KYAw-BXwapha-1" value="Power reserve:" style="text;html=1;strokeColor=none;fillColor=none;align=left;verticalAlign=middle;whiteSpace=wrap;rounded=0;fontSize=15;" parent="A2ItbT05KYAw-BXwapha-8" vertex="1">
          <mxGeometry width="110" height="30" as="geometry" />
        </mxCell>
        <mxCell id="A2ItbT05KYAw-BXwapha-2" value="&lt;font style=&quot;font-size: 15px;&quot;&gt;0.55&lt;/font&gt;" style="strokeWidth=1;shadow=0;dashed=0;align=center;html=1;shape=mxgraph.mockup.forms.pwField;strokeColor=#999999;mainText=;align=left;fontColor=#666666;fontSize=17;spacingLeft=3;" parent="A2ItbT05KYAw-BXwapha-8" vertex="1">
          <mxGeometry x="170" y="2.5" width="130" height="25" as="geometry" />
        </mxCell>
        <mxCell id="A2ItbT05KYAw-BXwapha-10" value="" style="group" parent="A2ItbT05KYAw-BXwapha-27" vertex="1" connectable="0">
          <mxGeometry x="370" y="140" width="300" height="30" as="geometry" />
        </mxCell>
        <mxCell id="A2ItbT05KYAw-BXwapha-11" value="Ask:" style="text;html=1;strokeColor=none;fillColor=none;align=left;verticalAlign=middle;whiteSpace=wrap;rounded=0;fontSize=15;" parent="A2ItbT05KYAw-BXwapha-10" vertex="1">
          <mxGeometry width="110" height="30" as="geometry" />
        </mxCell>
        <mxCell id="A2ItbT05KYAw-BXwapha-12" value="&lt;font style=&quot;font-size: 15px;&quot;&gt;42.10&lt;/font&gt;" style="strokeWidth=1;shadow=0;dashed=0;align=center;html=1;shape=mxgraph.mockup.forms.pwField;strokeColor=#999999;mainText=;align=left;fontColor=#666666;fontSize=17;spacingLeft=3;" parent="A2ItbT05KYAw-BXwapha-10" vertex="1">
          <mxGeometry x="170" y="2.5" width="130" height="25" as="geometry" />
        </mxCell>
        <mxCell id="A2ItbT05KYAw-BXwapha-13" value="" style="group" parent="A2ItbT05KYAw-BXwapha-27" vertex="1" connectable="0">
          <mxGeometry x="34" y="140" width="300" height="30" as="geometry" />
        </mxCell>
        <mxCell id="A2ItbT05KYAw-BXwapha-14" value="Level:" style="text;html=1;strokeColor=none;fillColor=none;align=left;verticalAlign=middle;whiteSpace=wrap;rounded=0;fontSize=15;" parent="A2ItbT05KYAw-BXwapha-13" vertex="1">
          <mxGeometry width="110" height="30" as="geometry" />
        </mxCell>
        <mxCell id="A2ItbT05KYAw-BXwapha-15" value="&lt;font style=&quot;font-size: 15px;&quot;&gt;42.20&lt;/font&gt;" style="strokeWidth=1;shadow=0;dashed=0;align=center;html=1;shape=mxgraph.mockup.forms.pwField;strokeColor=#999999;mainText=;align=left;fontColor=#666666;fontSize=17;spacingLeft=3;" parent="A2ItbT05KYAw-BXwapha-13" vertex="1">
          <mxGeometry x="170" y="2.5" width="130" height="25" as="geometry" />
        </mxCell>
        <mxCell id="A2ItbT05KYAw-BXwapha-16" value="" style="group" parent="A2ItbT05KYAw-BXwapha-27" vertex="1" connectable="0">
          <mxGeometry x="34" y="180" width="300" height="30" as="geometry" />
        </mxCell>
        <mxCell id="A2ItbT05KYAw-BXwapha-17" value="Goal:" style="text;html=1;strokeColor=none;fillColor=none;align=left;verticalAlign=middle;whiteSpace=wrap;rounded=0;fontSize=15;" parent="A2ItbT05KYAw-BXwapha-16" vertex="1">
          <mxGeometry width="110" height="30" as="geometry" />
        </mxCell>
        <mxCell id="A2ItbT05KYAw-BXwapha-18" value="&lt;font style=&quot;font-size: 15px;&quot;&gt;42.75&lt;/font&gt;" style="strokeWidth=1;shadow=0;dashed=0;align=center;html=1;shape=mxgraph.mockup.forms.pwField;strokeColor=#999999;mainText=;align=left;fontColor=#666666;fontSize=17;spacingLeft=3;" parent="A2ItbT05KYAw-BXwapha-16" vertex="1">
          <mxGeometry x="170" y="2.5" width="130" height="25" as="geometry" />
        </mxCell>
        <mxCell id="A2ItbT05KYAw-BXwapha-22" value="&lt;font style=&quot;font-size: 15px;&quot;&gt;Calculate&lt;/font&gt;" style="strokeWidth=1;shadow=0;dashed=0;align=center;html=1;shape=mxgraph.mockup.buttons.button;strokeColor=#666666;fontColor=#000000;mainText=;buttonStyle=round;fontSize=17;fontStyle=0;fillColor=#FFFFFF;whiteSpace=wrap;" parent="A2ItbT05KYAw-BXwapha-27" vertex="1">
          <mxGeometry x="410" y="180" width="100" height="30" as="geometry" />
        </mxCell>
        <mxCell id="A2ItbT05KYAw-BXwapha-25" value="&lt;font style=&quot;font-size: 15px;&quot;&gt;Clear&lt;/font&gt;" style="strokeWidth=1;shadow=0;dashed=0;align=center;html=1;shape=mxgraph.mockup.buttons.button;strokeColor=#666666;fontColor=#000000;mainText=;buttonStyle=round;fontSize=17;fontStyle=0;fillColor=#FFFFFF;whiteSpace=wrap;" parent="A2ItbT05KYAw-BXwapha-27" vertex="1">
          <mxGeometry x="520" y="180" width="100" height="30" as="geometry" />
        </mxCell>
        <mxCell id="A2ItbT05KYAw-BXwapha-26" value="&lt;font color=&quot;#ff170f&quot;&gt;&lt;b&gt;#1 - stop-loss is not under the level&lt;/b&gt;&lt;/font&gt;&lt;br&gt;Long, Min. Goal,&lt;br&gt;Lvl: 42.20, Goal: 42.75, Pwr: 0.55, Ask: 42.10, Slpg: 0.02&lt;br&gt;&lt;br&gt;Params:&amp;nbsp; SL: 42.14, BE: 42.28, TP: 42.75.&lt;br&gt;Out: 33.37, 1.11%&lt;br&gt;R/R - 1/3, Risk - 11.12, 0.37%&lt;br&gt;-----------------------------------------------&lt;br&gt;&lt;b style=&quot;&quot;&gt;&lt;font color=&quot;#009900&quot;&gt;#2 - good to go&lt;/font&gt;&lt;/b&gt;&lt;br style=&quot;border-color: var(--border-color);&quot;&gt;Long, Min. Goal,&lt;br style=&quot;border-color: var(--border-color);&quot;&gt;Lvl: 42.20, Goal: 42.75, Pwr: 0.55, Ask: 42.10, Slpg: 0.02&lt;br style=&quot;border-color: var(--border-color);&quot;&gt;&lt;br style=&quot;border-color: var(--border-color);&quot;&gt;Params:&amp;nbsp; SL: 42.14, BE: 42.28, TP: 42.75.&lt;br style=&quot;border-color: var(--border-color);&quot;&gt;Out: 33.37, 1.11%&lt;br style=&quot;border-color: var(--border-color);&quot;&gt;R/R - 1/3, Risk - 11.12, 0.37%" style="rounded=0;whiteSpace=wrap;html=1;align=left;verticalAlign=top;spacingLeft=10;spacingBottom=10;spacingRight=10;fontSize=15;" parent="A2ItbT05KYAw-BXwapha-27" vertex="1">
          <mxGeometry x="34" y="240" width="646" height="300" as="geometry" />
        </mxCell>
        <mxCell id="A2ItbT05KYAw-BXwapha-152" value="" style="rounded=0;whiteSpace=wrap;html=1;" parent="A2ItbT05KYAw-BXwapha-27" vertex="1">
          <mxGeometry y="10" width="710" height="30" as="geometry" />
        </mxCell>
        <mxCell id="9z-gnFhAnnf-oLJfjQJb-2" value="Калькулятор" style="text;html=1;strokeColor=none;fillColor=none;align=center;verticalAlign=middle;whiteSpace=wrap;rounded=0;" parent="A2ItbT05KYAw-BXwapha-27" vertex="1">
          <mxGeometry y="10" width="100" height="30" as="geometry" />
        </mxCell>
        <mxCell id="b1EKXMWBeroLntY3joeX-1" value="" style="group" vertex="1" connectable="0" parent="1">
          <mxGeometry x="-720" y="10" width="401.41999999999996" height="790" as="geometry" />
        </mxCell>
        <mxCell id="WpF2hK63ebN1GKbvPP3_-9" value="" style="rounded=1;whiteSpace=wrap;html=1;arcSize=2;imageHeight=24;" parent="b1EKXMWBeroLntY3joeX-1" vertex="1">
          <mxGeometry x="20.000000000000014" y="20" width="360" height="770" as="geometry" />
        </mxCell>
        <mxCell id="WpF2hK63ebN1GKbvPP3_-10" value="" style="group" parent="b1EKXMWBeroLntY3joeX-1" vertex="1" connectable="0">
          <mxGeometry x="26.510000000000005" y="40" width="248.17" height="30" as="geometry" />
        </mxCell>
        <mxCell id="WpF2hK63ebN1GKbvPP3_-11" value="Exchange" style="text;html=1;strokeColor=none;fillColor=none;align=left;verticalAlign=middle;whiteSpace=wrap;rounded=0;fontSize=15;" parent="WpF2hK63ebN1GKbvPP3_-10" vertex="1">
          <mxGeometry width="51.33333333333333" height="30" as="geometry" />
        </mxCell>
        <mxCell id="WpF2hK63ebN1GKbvPP3_-17" value="" style="group" parent="b1EKXMWBeroLntY3joeX-1" vertex="1" connectable="0">
          <mxGeometry x="25.380000000000024" y="152.5" width="70" height="30" as="geometry" />
        </mxCell>
        <mxCell id="WpF2hK63ebN1GKbvPP3_-18" value="Position:" style="text;html=1;strokeColor=none;fillColor=none;align=left;verticalAlign=middle;whiteSpace=wrap;rounded=0;fontSize=15;" parent="WpF2hK63ebN1GKbvPP3_-17" vertex="1">
          <mxGeometry width="12.493110139466737" height="30" as="geometry" />
        </mxCell>
        <mxCell id="WpF2hK63ebN1GKbvPP3_-19" value="" style="group" parent="b1EKXMWBeroLntY3joeX-1" vertex="1" connectable="0">
          <mxGeometry x="26.510000000000005" y="77.5" width="80" height="30" as="geometry" />
        </mxCell>
        <mxCell id="WpF2hK63ebN1GKbvPP3_-20" value="Estimation:" style="text;html=1;strokeColor=none;fillColor=none;align=left;verticalAlign=middle;whiteSpace=wrap;rounded=0;fontSize=15;" parent="WpF2hK63ebN1GKbvPP3_-19" vertex="1">
          <mxGeometry width="18.66695398616617" height="30" as="geometry" />
        </mxCell>
        <mxCell id="WpF2hK63ebN1GKbvPP3_-21" value="Ask:&amp;nbsp; &lt;b&gt;42.05&lt;/b&gt;" style="text;html=1;strokeColor=none;fillColor=none;align=left;verticalAlign=middle;whiteSpace=wrap;rounded=0;fontSize=15;" parent="b1EKXMWBeroLntY3joeX-1" vertex="1">
          <mxGeometry x="26.45000000000006" y="320" width="84.25" height="30" as="geometry" />
        </mxCell>
        <mxCell id="WpF2hK63ebN1GKbvPP3_-22" value="&lt;font style=&quot;font-size: 15px;&quot;&gt;42.10&lt;/font&gt;" style="strokeWidth=1;shadow=0;dashed=0;align=center;html=1;shape=mxgraph.mockup.forms.pwField;strokeColor=#999999;mainText=;align=left;fontColor=#666666;fontSize=17;spacingLeft=3;" parent="b1EKXMWBeroLntY3joeX-1" vertex="1">
          <mxGeometry x="235.38" y="190" width="134.17" height="25" as="geometry" />
        </mxCell>
        <mxCell id="WpF2hK63ebN1GKbvPP3_-23" value="" style="group" parent="b1EKXMWBeroLntY3joeX-1" vertex="1" connectable="0">
          <mxGeometry x="28.350000000000037" y="187.5" width="90" height="30" as="geometry" />
        </mxCell>
        <mxCell id="WpF2hK63ebN1GKbvPP3_-24" value="Level:" style="text;html=1;strokeColor=none;fillColor=none;align=left;verticalAlign=middle;whiteSpace=wrap;rounded=0;fontSize=15;" parent="WpF2hK63ebN1GKbvPP3_-23" vertex="1">
          <mxGeometry width="29.481458162279896" height="30" as="geometry" />
        </mxCell>
        <mxCell id="WpF2hK63ebN1GKbvPP3_-25" value="Goal:" style="text;html=1;strokeColor=none;fillColor=none;align=left;verticalAlign=middle;whiteSpace=wrap;rounded=0;fontSize=15;" parent="b1EKXMWBeroLntY3joeX-1" vertex="1">
          <mxGeometry x="26.509943342776168" y="227.5" width="98.15864022662889" height="30" as="geometry" />
        </mxCell>
        <mxCell id="WpF2hK63ebN1GKbvPP3_-26" value="&lt;font style=&quot;font-size: 15px;&quot;&gt;42.20&lt;/font&gt;" style="strokeWidth=1;shadow=0;dashed=0;align=center;html=1;shape=mxgraph.mockup.forms.pwField;strokeColor=#999999;mainText=;align=left;fontColor=#666666;fontSize=17;spacingLeft=3;" parent="b1EKXMWBeroLntY3joeX-1" vertex="1">
          <mxGeometry x="235.38" y="230" width="134.17" height="25" as="geometry" />
        </mxCell>
        <mxCell id="WpF2hK63ebN1GKbvPP3_-27" value="&lt;span style=&quot;font-size: 15px;&quot;&gt;Min. Goal&lt;/span&gt;" style="strokeWidth=1;shadow=0;dashed=0;align=center;html=1;shape=mxgraph.mockup.forms.comboBox;strokeColor=#999999;fillColor=#999999;align=left;fillColor2=#999999;mainText=;fontColor=#666666;fontSize=17;spacingLeft=3;fillStyle=auto;noLabel=0;strokeOpacity=100;fillOpacity=100;allowArrows=1;" parent="b1EKXMWBeroLntY3joeX-1" vertex="1">
          <mxGeometry x="235.38" y="80" width="135.17" height="25" as="geometry" />
        </mxCell>
        <mxCell id="WpF2hK63ebN1GKbvPP3_-28" value="&lt;span style=&quot;font-size: 15px;&quot;&gt;Long&lt;/span&gt;" style="strokeWidth=1;shadow=0;dashed=0;align=center;html=1;shape=mxgraph.mockup.forms.comboBox;strokeColor=#999999;fillColor=#999999;align=left;fillColor2=#999999;mainText=;fontColor=#666666;fontSize=17;spacingLeft=3;fillStyle=auto;noLabel=0;strokeOpacity=100;fillOpacity=100;allowArrows=1;" parent="b1EKXMWBeroLntY3joeX-1" vertex="1">
          <mxGeometry x="235.38" y="155" width="135.17" height="25" as="geometry" />
        </mxCell>
        <mxCell id="WpF2hK63ebN1GKbvPP3_-29" value="Time: &lt;b&gt;01:30&lt;/b&gt;" style="text;html=1;align=center;verticalAlign=middle;whiteSpace=wrap;rounded=0;fontSize=15;" parent="b1EKXMWBeroLntY3joeX-1" vertex="1">
          <mxGeometry x="268.1500000000001" y="320" width="96.61" height="30" as="geometry" />
        </mxCell>
        <mxCell id="WpF2hK63ebN1GKbvPP3_-30" value="ADR(p) : &lt;b&gt;73%&lt;/b&gt;" style="text;html=1;align=center;verticalAlign=middle;whiteSpace=wrap;rounded=0;fontSize=15;" parent="b1EKXMWBeroLntY3joeX-1" vertex="1">
          <mxGeometry x="141.83000000000004" y="350" width="110" height="30" as="geometry" />
        </mxCell>
        <mxCell id="WpF2hK63ebN1GKbvPP3_-54" value="" style="rounded=0;whiteSpace=wrap;html=1;" parent="b1EKXMWBeroLntY3joeX-1" vertex="1">
          <mxGeometry x="18.920000000000016" width="366.46" height="30" as="geometry" />
        </mxCell>
        <mxCell id="WpF2hK63ebN1GKbvPP3_-55" value="&lt;span style=&quot;color: rgb(0, 0, 0); font-family: Helvetica; font-size: 15px; font-style: normal; font-variant-ligatures: normal; font-variant-caps: normal; font-weight: 400; letter-spacing: normal; orphans: 2; text-indent: 0px; text-transform: none; widows: 2; word-spacing: 0px; -webkit-text-stroke-width: 0px; background-color: rgb(251, 251, 251); text-decoration-thickness: initial; text-decoration-style: initial; text-decoration-color: initial; float: none; display: inline !important;&quot;&gt;SL: &lt;/span&gt;&lt;span style=&quot;color: rgb(0, 0, 0); font-family: Helvetica; font-size: 15px; font-style: normal; font-variant-ligatures: normal; font-variant-caps: normal; letter-spacing: normal; orphans: 2; text-indent: 0px; text-transform: none; widows: 2; word-spacing: 0px; -webkit-text-stroke-width: 0px; background-color: rgb(251, 251, 251); text-decoration-thickness: initial; text-decoration-style: initial; text-decoration-color: initial; float: none; display: inline !important;&quot;&gt;&lt;b&gt;42.14&lt;/b&gt;&lt;/span&gt;&lt;span style=&quot;color: rgb(0, 0, 0); font-family: Helvetica; font-size: 15px; font-style: normal; font-variant-ligatures: normal; font-variant-caps: normal; font-weight: 400; letter-spacing: normal; orphans: 2; text-indent: 0px; text-transform: none; widows: 2; word-spacing: 0px; -webkit-text-stroke-width: 0px; background-color: rgb(251, 251, 251); text-decoration-thickness: initial; text-decoration-style: initial; text-decoration-color: initial; float: none; display: inline !important;&quot;&gt;, BE: &lt;/span&gt;&lt;span style=&quot;color: rgb(0, 0, 0); font-family: Helvetica; font-size: 15px; font-style: normal; font-variant-ligatures: normal; font-variant-caps: normal; letter-spacing: normal; orphans: 2; text-indent: 0px; text-transform: none; widows: 2; word-spacing: 0px; -webkit-text-stroke-width: 0px; background-color: rgb(251, 251, 251); text-decoration-thickness: initial; text-decoration-style: initial; text-decoration-color: initial; float: none; display: inline !important;&quot;&gt;&lt;b&gt;42.28&lt;/b&gt;&lt;/span&gt;&lt;span style=&quot;color: rgb(0, 0, 0); font-family: Helvetica; font-size: 15px; font-style: normal; font-variant-ligatures: normal; font-variant-caps: normal; font-weight: 400; letter-spacing: normal; orphans: 2; text-indent: 0px; text-transform: none; widows: 2; word-spacing: 0px; -webkit-text-stroke-width: 0px; background-color: rgb(251, 251, 251); text-decoration-thickness: initial; text-decoration-style: initial; text-decoration-color: initial; float: none; display: inline !important;&quot;&gt;, TP: &lt;/span&gt;&lt;span style=&quot;color: rgb(0, 0, 0); font-family: Helvetica; font-size: 15px; font-style: normal; font-variant-ligatures: normal; font-variant-caps: normal; letter-spacing: normal; orphans: 2; text-indent: 0px; text-transform: none; widows: 2; word-spacing: 0px; -webkit-text-stroke-width: 0px; background-color: rgb(251, 251, 251); text-decoration-thickness: initial; text-decoration-style: initial; text-decoration-color: initial; float: none; display: inline !important;&quot;&gt;&lt;b&gt;42.20&lt;/b&gt;&lt;br&gt;&lt;/span&gt;&lt;span style=&quot;color: rgb(0, 0, 0); font-family: Helvetica; font-size: 15px; font-style: normal; font-variant-ligatures: normal; font-variant-caps: normal; font-weight: 400; letter-spacing: normal; orphans: 2; text-indent: 0px; text-transform: none; widows: 2; word-spacing: 0px; -webkit-text-stroke-width: 0px; background-color: rgb(251, 251, 251); text-decoration-thickness: initial; text-decoration-style: initial; text-decoration-color: initial; float: none; display: inline !important;&quot;&gt;&lt;br&gt;Out: &lt;/span&gt;&lt;span style=&quot;color: rgb(0, 0, 0); font-family: Helvetica; font-size: 15px; font-style: normal; font-variant-ligatures: normal; font-variant-caps: normal; letter-spacing: normal; orphans: 2; text-indent: 0px; text-transform: none; widows: 2; word-spacing: 0px; -webkit-text-stroke-width: 0px; background-color: rgb(251, 251, 251); text-decoration-thickness: initial; text-decoration-style: initial; text-decoration-color: initial; float: none; display: inline !important;&quot;&gt;&lt;b&gt;33.37,1.11&lt;/b&gt;&lt;/span&gt;&lt;span style=&quot;color: rgb(0, 0, 0); font-family: Helvetica; font-size: 15px; font-style: normal; font-variant-ligatures: normal; font-variant-caps: normal; font-weight: 400; letter-spacing: normal; orphans: 2; text-indent: 0px; text-transform: none; widows: 2; word-spacing: 0px; -webkit-text-stroke-width: 0px; background-color: rgb(251, 251, 251); text-decoration-thickness: initial; text-decoration-style: initial; text-decoration-color: initial; float: none; display: inline !important;&quot;&gt;%,&amp;nbsp;&lt;br&gt;&lt;/span&gt;&lt;span style=&quot;color: rgb(0, 0, 0); font-family: Helvetica; font-size: 15px; font-style: normal; font-variant-ligatures: normal; font-variant-caps: normal; font-weight: 400; letter-spacing: normal; orphans: 2; text-indent: 0px; text-transform: none; widows: 2; word-spacing: 0px; -webkit-text-stroke-width: 0px; background-color: rgb(251, 251, 251); text-decoration-thickness: initial; text-decoration-style: initial; text-decoration-color: initial; float: none; display: inline !important;&quot;&gt;&lt;br&gt;R/R: &lt;/span&gt;&lt;span style=&quot;color: rgb(0, 0, 0); font-family: Helvetica; font-size: 15px; font-style: normal; font-variant-ligatures: normal; font-variant-caps: normal; letter-spacing: normal; orphans: 2; text-indent: 0px; text-transform: none; widows: 2; word-spacing: 0px; -webkit-text-stroke-width: 0px; background-color: rgb(251, 251, 251); text-decoration-thickness: initial; text-decoration-style: initial; text-decoration-color: initial; float: none; display: inline !important;&quot;&gt;&lt;b&gt;1/3&lt;/b&gt;&lt;/span&gt;&lt;span style=&quot;color: rgb(0, 0, 0); font-family: Helvetica; font-size: 15px; font-style: normal; font-variant-ligatures: normal; font-variant-caps: normal; font-weight: 400; letter-spacing: normal; orphans: 2; text-indent: 0px; text-transform: none; widows: 2; word-spacing: 0px; -webkit-text-stroke-width: 0px; background-color: rgb(251, 251, 251); text-decoration-thickness: initial; text-decoration-style: initial; text-decoration-color: initial; float: none; display: inline !important;&quot;&gt;, Rsk: &lt;/span&gt;&lt;span style=&quot;color: rgb(0, 0, 0); font-family: Helvetica; font-size: 15px; font-style: normal; font-variant-ligatures: normal; font-variant-caps: normal; letter-spacing: normal; orphans: 2; text-indent: 0px; text-transform: none; widows: 2; word-spacing: 0px; -webkit-text-stroke-width: 0px; background-color: rgb(251, 251, 251); text-decoration-thickness: initial; text-decoration-style: initial; text-decoration-color: initial; float: none; display: inline !important;&quot;&gt;&lt;b&gt;11.12, 0.37%&lt;/b&gt;&lt;/span&gt;&lt;div&gt;&lt;br&gt;&lt;/div&gt;" style="text;html=1;align=left;verticalAlign=middle;whiteSpace=wrap;rounded=0;" parent="b1EKXMWBeroLntY3joeX-1" vertex="1">
          <mxGeometry x="35.38000000000001" y="700" width="220" height="50" as="geometry" />
        </mxCell>
        <mxCell id="WpF2hK63ebN1GKbvPP3_-56" value="Zone: &lt;b&gt;&lt;font color=&quot;#ff170f&quot;&gt;short&lt;/font&gt;&lt;/b&gt;" style="text;html=1;align=left;verticalAlign=middle;whiteSpace=wrap;rounded=0;fontSize=15;" parent="b1EKXMWBeroLntY3joeX-1" vertex="1">
          <mxGeometry x="149.82000000000005" y="320" width="102.17" height="30" as="geometry" />
        </mxCell>
        <mxCell id="WpF2hK63ebN1GKbvPP3_-57" value="P/L: &lt;b&gt;45 (1.5%)&lt;/b&gt;" style="text;html=1;align=left;verticalAlign=middle;whiteSpace=wrap;rounded=0;fontSize=15;" parent="b1EKXMWBeroLntY3joeX-1" vertex="1">
          <mxGeometry x="26.45000000000006" y="350" width="108.87" height="30" as="geometry" />
        </mxCell>
        <mxCell id="WpF2hK63ebN1GKbvPP3_-64" value="ADR(lft) : &lt;b&gt;27%&lt;/b&gt;" style="text;html=1;align=center;verticalAlign=middle;whiteSpace=wrap;rounded=0;fontSize=15;" parent="b1EKXMWBeroLntY3joeX-1" vertex="1">
          <mxGeometry x="270" y="350" width="110" height="30" as="geometry" />
        </mxCell>
        <mxCell id="WpF2hK63ebN1GKbvPP3_-65" value="Trade" style="text;html=1;strokeColor=none;fillColor=none;align=center;verticalAlign=middle;whiteSpace=wrap;rounded=0;" parent="b1EKXMWBeroLntY3joeX-1" vertex="1">
          <mxGeometry width="100" height="30" as="geometry" />
        </mxCell>
        <mxCell id="WpF2hK63ebN1GKbvPP3_-66" value="&lt;font style=&quot;font-size: 15px;&quot;&gt;42.15&lt;/font&gt;" style="strokeWidth=1;shadow=0;dashed=0;align=center;html=1;shape=mxgraph.mockup.forms.pwField;strokeColor=#999999;mainText=;align=left;fontColor=#666666;fontSize=17;spacingLeft=3;" parent="b1EKXMWBeroLntY3joeX-1" vertex="1">
          <mxGeometry x="235.38" y="270" width="134.17" height="25" as="geometry" />
        </mxCell>
        <mxCell id="WpF2hK63ebN1GKbvPP3_-67" value="Tech. SL:" style="strokeWidth=1;shadow=0;dashed=0;align=center;html=1;shape=mxgraph.mockup.forms.rrect;rSize=0;fillColor=#eeeeee;strokeColor=#999999;gradientColor=#cccccc;align=left;spacingLeft=4;fontSize=15;fontColor=#666666;labelPosition=right;" parent="b1EKXMWBeroLntY3joeX-1" vertex="1">
          <mxGeometry x="28.35000000000001" y="275" width="15" height="15" as="geometry" />
        </mxCell>
        <mxCell id="WpF2hK63ebN1GKbvPP3_-84" value="" style="group" parent="b1EKXMWBeroLntY3joeX-1" vertex="1" connectable="0">
          <mxGeometry x="35.38000000000007" y="440" width="330" height="210" as="geometry" />
        </mxCell>
        <mxCell id="WpF2hK63ebN1GKbvPP3_-32" value="" style="rounded=0;whiteSpace=wrap;html=1;horizontal=1;verticalAlign=top;align=left;spacingLeft=10;spacingBottom=10;spacingRight=10;spacingTop=1;spacing=2;" parent="WpF2hK63ebN1GKbvPP3_-84" vertex="1">
          <mxGeometry width="330" height="210" as="geometry" />
        </mxCell>
        <mxCell id="WpF2hK63ebN1GKbvPP3_-47" value="&lt;b&gt;AFRM&lt;/b&gt; Qtt: &lt;b&gt;75&lt;/b&gt;, Sl: &lt;b&gt;42.14&lt;/b&gt;, Be: &lt;b&gt;42.28&lt;/b&gt;, &lt;b style=&quot;&quot;&gt;&lt;font color=&quot;#009900&quot;&gt;Ps: 105%&lt;/font&gt;&lt;/b&gt;&amp;nbsp;&amp;nbsp;&lt;font color=&quot;#009900&quot;&gt;&lt;b&gt;P/L: 48.0&lt;/b&gt;&lt;/font&gt;" style="text;html=1;align=left;verticalAlign=middle;whiteSpace=wrap;rounded=0;" parent="WpF2hK63ebN1GKbvPP3_-84" vertex="1">
          <mxGeometry x="10" y="140" width="310" height="26" as="geometry" />
        </mxCell>
        <mxCell id="WpF2hK63ebN1GKbvPP3_-68" value="" style="group" parent="WpF2hK63ebN1GKbvPP3_-84" vertex="1" connectable="0">
          <mxGeometry x="10" y="106" width="310" height="26" as="geometry" />
        </mxCell>
        <mxCell id="WpF2hK63ebN1GKbvPP3_-48" value="Fix" style="rounded=0;whiteSpace=wrap;html=1;" parent="WpF2hK63ebN1GKbvPP3_-68" vertex="1">
          <mxGeometry width="50" height="26" as="geometry" />
        </mxCell>
        <mxCell id="WpF2hK63ebN1GKbvPP3_-49" value="25" style="rounded=0;whiteSpace=wrap;html=1;" parent="WpF2hK63ebN1GKbvPP3_-68" vertex="1">
          <mxGeometry x="70" width="50" height="26" as="geometry" />
        </mxCell>
        <mxCell id="WpF2hK63ebN1GKbvPP3_-50" value="50" style="rounded=0;whiteSpace=wrap;html=1;" parent="WpF2hK63ebN1GKbvPP3_-68" vertex="1">
          <mxGeometry x="130" width="50" height="26" as="geometry" />
        </mxCell>
        <mxCell id="WpF2hK63ebN1GKbvPP3_-51" value="75" style="rounded=0;whiteSpace=wrap;html=1;" parent="WpF2hK63ebN1GKbvPP3_-68" vertex="1">
          <mxGeometry x="190" width="50" height="26" as="geometry" />
        </mxCell>
        <mxCell id="WpF2hK63ebN1GKbvPP3_-52" value="All" style="rounded=0;whiteSpace=wrap;html=1;" parent="WpF2hK63ebN1GKbvPP3_-68" vertex="1">
          <mxGeometry x="260" width="50" height="26" as="geometry" />
        </mxCell>
        <mxCell id="WpF2hK63ebN1GKbvPP3_-70" value="" style="group" parent="WpF2hK63ebN1GKbvPP3_-84" vertex="1" connectable="0">
          <mxGeometry x="10" y="166" width="310" height="26" as="geometry" />
        </mxCell>
        <mxCell id="WpF2hK63ebN1GKbvPP3_-71" value="Fix" style="rounded=0;whiteSpace=wrap;html=1;" parent="WpF2hK63ebN1GKbvPP3_-70" vertex="1">
          <mxGeometry width="50" height="26" as="geometry" />
        </mxCell>
        <mxCell id="WpF2hK63ebN1GKbvPP3_-72" value="25" style="rounded=0;whiteSpace=wrap;html=1;" parent="WpF2hK63ebN1GKbvPP3_-70" vertex="1">
          <mxGeometry x="70" width="50" height="26" as="geometry" />
        </mxCell>
        <mxCell id="WpF2hK63ebN1GKbvPP3_-73" value="50" style="rounded=0;whiteSpace=wrap;html=1;" parent="WpF2hK63ebN1GKbvPP3_-70" vertex="1">
          <mxGeometry x="130" width="50" height="26" as="geometry" />
        </mxCell>
        <mxCell id="WpF2hK63ebN1GKbvPP3_-74" value="75" style="rounded=0;whiteSpace=wrap;html=1;" parent="WpF2hK63ebN1GKbvPP3_-70" vertex="1">
          <mxGeometry x="190" width="50" height="26" as="geometry" />
        </mxCell>
        <mxCell id="WpF2hK63ebN1GKbvPP3_-75" value="All" style="rounded=0;whiteSpace=wrap;html=1;" parent="WpF2hK63ebN1GKbvPP3_-70" vertex="1">
          <mxGeometry x="260" width="50" height="26" as="geometry" />
        </mxCell>
        <mxCell id="WpF2hK63ebN1GKbvPP3_-77" value="Fix" style="rounded=0;whiteSpace=wrap;html=1;" parent="WpF2hK63ebN1GKbvPP3_-84" vertex="1">
          <mxGeometry x="10" y="50" width="50" height="26" as="geometry" />
        </mxCell>
        <mxCell id="WpF2hK63ebN1GKbvPP3_-78" value="25" style="rounded=0;whiteSpace=wrap;html=1;" parent="WpF2hK63ebN1GKbvPP3_-84" vertex="1">
          <mxGeometry x="80" y="50" width="50" height="26" as="geometry" />
        </mxCell>
        <mxCell id="WpF2hK63ebN1GKbvPP3_-79" value="50" style="rounded=0;whiteSpace=wrap;html=1;" parent="WpF2hK63ebN1GKbvPP3_-84" vertex="1">
          <mxGeometry x="140" y="50" width="50" height="26" as="geometry" />
        </mxCell>
        <mxCell id="WpF2hK63ebN1GKbvPP3_-80" value="75" style="rounded=0;whiteSpace=wrap;html=1;" parent="WpF2hK63ebN1GKbvPP3_-84" vertex="1">
          <mxGeometry x="200" y="50" width="50" height="26" as="geometry" />
        </mxCell>
        <mxCell id="WpF2hK63ebN1GKbvPP3_-81" value="All" style="rounded=0;whiteSpace=wrap;html=1;" parent="WpF2hK63ebN1GKbvPP3_-84" vertex="1">
          <mxGeometry x="270" y="50" width="50" height="26" as="geometry" />
        </mxCell>
        <mxCell id="WpF2hK63ebN1GKbvPP3_-41" value="&lt;b&gt;AFRM&lt;/b&gt; Qtt: &lt;b&gt;75&lt;/b&gt;, Sl: &lt;b&gt;42.14&lt;/b&gt;, Be: &lt;b&gt;42.28&lt;/b&gt;, &lt;b style=&quot;&quot;&gt;&lt;font color=&quot;#ff0000&quot;&gt;Ps: 05%&lt;/font&gt;&lt;/b&gt;&amp;nbsp;&amp;nbsp;&lt;b style=&quot;&quot;&gt;&lt;font color=&quot;#ff0000&quot;&gt;P/L: -3.0&lt;/font&gt;&lt;/b&gt;" style="text;html=1;align=left;verticalAlign=middle;whiteSpace=wrap;rounded=0;" parent="WpF2hK63ebN1GKbvPP3_-84" vertex="1">
          <mxGeometry x="10" y="80" width="310" height="26" as="geometry" />
        </mxCell>
        <mxCell id="WpF2hK63ebN1GKbvPP3_-34" value="&lt;b&gt;AFRM&lt;/b&gt; Qtt: &lt;b&gt;75&lt;/b&gt;, Sl: &lt;b&gt;42.14&lt;/b&gt;, Be: &lt;b&gt;42.28&lt;/b&gt;, &lt;font color=&quot;#ff8000&quot;&gt;&lt;b&gt;Ps: 65%&lt;/b&gt;&lt;/font&gt;&amp;nbsp;&amp;nbsp;&lt;font color=&quot;#009900&quot;&gt;&lt;b&gt;P/L: 11.0&lt;/b&gt;&lt;/font&gt;" style="text;html=1;align=left;verticalAlign=middle;whiteSpace=wrap;rounded=0;" parent="WpF2hK63ebN1GKbvPP3_-84" vertex="1">
          <mxGeometry x="10" y="14" width="303.8" height="26" as="geometry" />
        </mxCell>
        <mxCell id="WpF2hK63ebN1GKbvPP3_-59" value="&lt;font style=&quot;font-size: 15px;&quot;&gt;Stop-Limit&lt;/font&gt;" style="strokeWidth=1;shadow=0;dashed=0;align=center;html=1;shape=mxgraph.mockup.buttons.button;strokeColor=#666666;fontColor=#000000;mainText=;buttonStyle=round;fontSize=17;fontStyle=0;fillColor=#FFFFFF;whiteSpace=wrap;" parent="b1EKXMWBeroLntY3joeX-1" vertex="1">
          <mxGeometry x="172.43" y="390" width="100" height="30" as="geometry" />
        </mxCell>
        <mxCell id="WpF2hK63ebN1GKbvPP3_-60" value="&lt;font style=&quot;font-size: 15px;&quot;&gt;Limit&lt;/font&gt;" style="strokeWidth=1;shadow=0;dashed=0;align=center;html=1;shape=mxgraph.mockup.buttons.button;strokeColor=#666666;fontColor=#000000;mainText=;buttonStyle=round;fontSize=17;fontStyle=0;fillColor=#FFFFFF;whiteSpace=wrap;" parent="b1EKXMWBeroLntY3joeX-1" vertex="1">
          <mxGeometry x="282.42999999999995" y="390" width="77.74" height="30" as="geometry" />
        </mxCell>
        <mxCell id="WpF2hK63ebN1GKbvPP3_-61" value="" style="ellipse;whiteSpace=wrap;html=1;aspect=fixed;fillColor=#0af526;" parent="b1EKXMWBeroLntY3joeX-1" vertex="1">
          <mxGeometry x="139.79000000000002" y="395" width="20" height="20" as="geometry" />
        </mxCell>
        <mxCell id="WpF2hK63ebN1GKbvPP3_-62" value="" style="ellipse;whiteSpace=wrap;html=1;aspect=fixed;fillColor=#f51a0a;direction=south;" parent="b1EKXMWBeroLntY3joeX-1" vertex="1">
          <mxGeometry x="114.79000000000003" y="395" width="20" height="20" as="geometry" />
        </mxCell>
        <mxCell id="WpF2hK63ebN1GKbvPP3_-63" value="&lt;font style=&quot;font-size: 15px;&quot;&gt;Lock&lt;/font&gt;" style="strokeWidth=1;shadow=0;dashed=0;align=center;html=1;shape=mxgraph.mockup.buttons.button;strokeColor=#666666;fontColor=#000000;mainText=;buttonStyle=round;fontSize=17;fontStyle=0;fillColor=#FFFFFF;whiteSpace=wrap;" parent="b1EKXMWBeroLntY3joeX-1" vertex="1">
          <mxGeometry x="40.17000000000003" y="390" width="62.26" height="30" as="geometry" />
        </mxCell>
        <mxCell id="WpF2hK63ebN1GKbvPP3_-12" value="&lt;span style=&quot;font-size: 15px;&quot;&gt;NASDAQ&lt;/span&gt;" style="strokeWidth=1;shadow=0;dashed=0;align=center;html=1;shape=mxgraph.mockup.forms.comboBox;strokeColor=#999999;fillColor=#999999;align=left;fillColor2=#999999;mainText=;fontColor=#666666;fontSize=17;spacingLeft=3;fillStyle=auto;noLabel=0;strokeOpacity=100;fillOpacity=100;allowArrows=1;" parent="b1EKXMWBeroLntY3joeX-1" vertex="1">
          <mxGeometry x="235.38" y="42.5" width="135.17" height="25" as="geometry" />
        </mxCell>
        <mxCell id="WpF2hK63ebN1GKbvPP3_-14" value="Ticker:" style="text;html=1;strokeColor=none;fillColor=none;align=left;verticalAlign=middle;whiteSpace=wrap;rounded=0;fontSize=15;spacing=0;labelPosition=center;verticalLabelPosition=middle;" parent="b1EKXMWBeroLntY3joeX-1" vertex="1">
          <mxGeometry x="26.50999999999999" y="112.5" width="44" height="30" as="geometry" />
        </mxCell>
        <mxCell id="WpF2hK63ebN1GKbvPP3_-15" style="edgeStyle=orthogonalEdgeStyle;rounded=0;orthogonalLoop=1;jettySize=auto;html=1;exitX=0.5;exitY=1;exitDx=0;exitDy=0;" parent="b1EKXMWBeroLntY3joeX-1" edge="1">
          <mxGeometry relative="1" as="geometry">
            <mxPoint x="401.41999999999996" y="390" as="sourcePoint" />
            <mxPoint x="401.41999999999996" y="390" as="targetPoint" />
          </mxGeometry>
        </mxCell>
        <mxCell id="WpF2hK63ebN1GKbvPP3_-16" value="&lt;font style=&quot;font-size: 15px;&quot;&gt;DKNG&lt;/font&gt;" style="strokeWidth=1;shadow=0;dashed=0;align=center;html=1;shape=mxgraph.mockup.forms.pwField;strokeColor=#999999;mainText=;align=left;fontColor=#666666;fontSize=17;spacingLeft=3;" parent="b1EKXMWBeroLntY3joeX-1" vertex="1">
          <mxGeometry x="300.55" y="117.5" width="70" height="25" as="geometry" />
        </mxCell>
      </root>
    </mxGraphModel>
  </diagram>
</mxfile>
